<?xml version="1.0" encoding="utf-8"?>
<!-- Generator: Adobe Illustrator 22.1.0, SVG Export Plug-In . SVG Version: 6.00 Build 0)  -->
<svg version="1.1" id="Layer_1" xmlns="http://www.w3.org/2000/svg" xmlns:xlink="http://www.w3.org/1999/xlink" x="0px" y="0px"
	 viewBox="0 0 402.9 408.3" style="enable-background:new 0 0 402.9 408.3;" xml:space="preserve">
<style type="text/css">
	.st0{fill:#FFFFFF;}
</style>
<g>
	<path class="st0" d="M244,198.1h65.7v94.8c-13.2,9.2-28.6,16.2-46.1,21.1c-17.5,4.9-34.7,7.4-51.6,7.4c-23.9,0-45.4-5-64.4-14.9
		c-19-9.9-33.9-23.8-44.7-41.6c-10.8-17.8-16.2-38.1-16.2-60.7c0-22.6,5.4-42.9,16.2-60.7c10.8-17.8,25.8-31.7,45.2-41.6
		c19.3-9.9,41.2-14.9,65.5-14.9c22,0,41.7,3.7,59.1,11c17.4,7.4,31.9,18.1,43.4,32.2l-48.4,42.6c-14.1-16.4-30.9-24.7-50.3-24.7
		c-16.7,0-29.9,5-39.7,15.1c-9.8,10-14.7,23.7-14.7,41c0,16.9,4.9,30.4,14.6,40.7c9.7,10.2,22.7,15.4,38.9,15.4
		c9.6,0,18.8-1.8,27.5-5.4V198.1z"/>
</g>
</svg>
